<?xml version="1.0" encoding="UTF-8"?>
<svg id="Layer_1" data-name="Layer 1" xmlns="http://www.w3.org/2000/svg" version="1.1" viewBox="0 0 100 100">
  <defs>
    <style>
      .cls-1 {
        fill: #bdc6c3;
        stroke-width: 0px;
      }
    </style>
  </defs>
  <g id="Layer_4" data-name="Layer 4">
    <g>
      <path class="cls-1" d="M50,97c-26-.3-47-21-47-47S24,3,50,3s47,21,47,47-21,46.8-47,47ZM87.3,50c.2-20.3-16.9-37.3-37.3-37.3S12.7,29.8,12.7,50s16.9,37.3,37.3,37.3,37.4-16.9,37.3-37.3Z"/>
      <path class="cls-1" d="M50.5,64.2h-3.6c-.5,0-1.1,0-1.1-.8-.3-4.2.3-8.1,3.6-11.3,1.3-1.3,2.7-2,4.2-2.7,4.5-1.9,6.4-5.5,5.6-10.5-.8-4.1-4.4-6.9-8.9-7.2-4.9-.3-8.8,3-9.4,8,0,.8-.5,1.1-1.3,1.1h-7.2c-.9,0-1.3-.5-1.3-1.3.3-5.6,2.7-10,7-13.5,7-5.6,17.7-5.3,24.4.6,3.3,3,5.8,6.4,6.6,10.8,1.6,8.3-2.7,16.7-11.3,20.5-1.9.8-2.8,2-2.8,4.1s0,2.3-2.2,2.3h-2.7l.2-.3Z"/>
      <path class="cls-1" d="M54.9,73.3v3.6c0,.8-.3,1.3-1.1,1.3h-7.4c-.8,0-1.1-.3-1.1-1.1v-7.5c0-.8.3-1.1,1.1-1.1h7.5c.8,0,1.1.3,1.1,1.1v3.8h-.2Z"/>
    </g>
  </g>
</svg>