<?xml version="1.0" encoding="UTF-8"?>
<svg id="Layer_1" data-name="Layer 1" xmlns="http://www.w3.org/2000/svg" version="1.1" viewBox="0 0 100 100">
  <defs>
    <style>
      .cls-1 {
        fill: #F4D038;
        stroke-width: 0px;
      }
    </style>
  </defs>
  <path class="cls-1" d="M97.5,38.1c0,16.7-12.6,31-29.1,33.2-.1,0-.2,0-.3,0-2.8.8-4.2-.4-5.6-2.8-5.3-9.2-10.8-18.3-16.2-27.4-2.9-4.8-7.1-7.3-12.7-7.7-.5,0-.9,0-1.4,0-1.3.2-1.4,0-1.2-1.2.7-4.1,2.2-8,4.4-11.5,6-9.4,14.5-14.9,25.5-15.9,18-1.6,32.5,10.7,35.8,26.4.5,2.2.7,4.5.7,6.8ZM60.6,29.6c0,2.7,0,5.5,0,8.2,0,2.5,1.3,3.9,3.8,3.9,4.4,0,8.8,0,13.2,0,.5,0,1,0,1.5-.2,1.7-.5,2.6-2,2.3-4-.2-1.6-1.6-2.9-3.4-2.9-3,0-6,0-9,0-1,0-1.4-.3-1.4-1.4,0-4,0-8,0-12,0-2.3-1.5-3.9-3.6-3.9-2.1,0-3.4,1.5-3.4,3.8,0,2.8,0,5.6,0,8.4Z"/>
  <path class="cls-1" d="M33.3,95.3c-7.4,0-14.8,0-22.2,0-1.1,0-2.1,0-3.1-.3-4.7-1.1-6.9-6.5-4.3-10.8,4.3-6.9,8.4-14,12.5-21,3.6-6,7.2-12.1,10.8-18.1,3-5,9.6-5.1,12.6,0,7.8,13,15.6,26.1,23.4,39.1,2.9,4.8,0,10.4-5.5,10.9-.8,0-1.5.1-2.3.1-7.3,0-14.5,0-21.8,0ZM36.9,58.7s0,0,0,0c0-.1,0-.3,0-.4,0-2.7-1.4-4.3-3.9-4.2-2.3.1-3.8,2.1-3.5,4.7.2,2,.4,4,.5,6,.2,2.7.4,5.4.7,8.1.2,1.6,1.1,2.5,2.5,2.5,1.4,0,2.3-.7,2.5-2.4.5-4.7.9-9.4,1.3-14.1ZM33.2,86.8c2.2,0,4.1-1.7,4.1-3.9,0-2.2-1.9-4.2-4-4.2-2.2,0-4,1.8-4.1,4,0,2.3,1.7,4.1,4,4.1Z"/>
</svg>