<?xml version="1.0" encoding="UTF-8"?>
<svg xmlns="http://www.w3.org/2000/svg" version="1.1" viewBox="0 0 100 60">
  <defs>
    <style>
      .cls-1 {
        fill: #e15656;
      }

      .cls-1, .cls-2 {
        stroke-width: 0px;
      }

      .cls-3 {
        fill: #dd3e3e;
      }

      .cls-3, .cls-4 {
        font-family: Chalkduster, Chalkduster;
        font-size: 17.5px;
      }

      .cls-4 {
        fill: #191919;
      }

      .cls-2 {
        fill: #202020;
      }
    </style>
  </defs>
  <g id="Layer_2" data-name="Layer 2">
    <g>
      <text class="cls-4" transform="translate(11.6 46.2) rotate(-17.7)"><tspan x="0" y="0">EXPIRED</tspan></text>
      <g>
        <path class="cls-2" d="M3.7,28.9c.3-.2-.1,0-.5.2.2,0,.3-.2.5-.2Z"/>
        <path class="cls-2" d="M3.2,29.1c-.1,0-.2.1-.3.2.1,0,.2-.1.3-.2Z"/>
        <path class="cls-2" d="M2,32.4c-.2-.4-.3-.9-.2-1.3,0-.4.2-.8.3-1.1-.3.4-.5,1-.4,1.5,0,.5.2.9.3,1Z"/>
        <path class="cls-2" d="M1.9,31.1h0c0,.1,0,.4,0,.6,0-.2,0-.4,0-.6Z"/>
        <path class="cls-2" d="M2.1,30.6h0c0,.5,0,.9,0,1.2,0-.4,0-.8,0-1.2Z"/>
        <path class="cls-2" d="M2.8,35.1l-.3-.8c-.2-.8.3.5.2,0-.3-1-.3-.3-.6-1.5,0,.1.6,2,.5,1.8.3,1.1,0,0,.3.6Z"/>
        <path class="cls-2" d="M38.7,44.5s0,0,.1,0c0,0,0,0-.1,0Z"/>
        <path class="cls-2" d="M51.8,40.2c.2,0,.4-.1.5-.1,0,0-.1,0-.2,0h-.3Z"/>
        <path class="cls-2" d="M30.5,47.3c-.2,0-.4,0-.5.1.1,0,.3,0,.5-.1Z"/>
        <path class="cls-2" d="M94.3,9.5s0,0,0,0c0,0,0,0,0,0h0c0-.1,0,0,0,0Z"/>
        <path class="cls-2" d="M66.5,35.3c.2,0,.4-.1.6-.2-.3.1-.5.2-.6.2Z"/>
        <path class="cls-2" d="M25.8,48.8c0,0,.1,0,.2,0,0,0-.2,0-.2,0h0s0,0,0,0Z"/>
        <path class="cls-2" d="M47.5,41.4c.2,0,.3,0,.5-.1-.2,0-.3,0-.5.1Z"/>
        <path class="cls-2" d="M6.6,47.3c0,.2.1.4.2.6,0-.1,0-.3-.2-.6Z"/>
        <path class="cls-2" d="M8.1,52h0s0,0,0,0Z"/>
        <path class="cls-2" d="M10.7,54h0s0,0,0,0Z"/>
        <path class="cls-2" d="M6.8,47.9c0,.4,0,.6.3,1h0c0,.2.3.6.4,1,0,0,0,0,0-.1,0-.2-.1-.4-.2-.8-.1-.4-.3-.7-.4-1.1Z"/>
        <path class="cls-2" d="M38.7,44.5c0,0-.4.1,0,0h0Z"/>
        <path class="cls-2" d="M34.7,45.9c.1,0,.3,0,.4-.1-.1,0-.3,0-.4.1Z"/>
        <path class="cls-2" d="M19.4,50.8s0,0,0,0c0,0,0,0,0,0Z"/>
        <path class="cls-2" d="M35.4,45.7h-.4c.1,0,.2,0,.4,0Z"/>
        <path class="cls-2" d="M24,49.4s0,0,0,0c0,0,0,0,0,0Z"/>
        <path class="cls-2" d="M36,17.9c.3-.1.5-.1.8-.2.6-.3-1.3.4-.4,0-.3,0-.5.2-.7.3h.4c.6-.3-.4,0,0,0Z"/>
        <path class="cls-2" d="M93.3,5.6h0s0,.1,0-.4c-.2-.4,0,.3-.4-.4,0,.1.1.4.2.6,0-.3.1,0,.3.3Z"/>
        <path class="cls-2" d="M93.1,5.3h0s0,.1,0,.1c0,.1,0,.2,0,.3,0,0,0-.3,0-.4Z"/>
        <path class="cls-2" d="M46.2,14.7c.1,0,.2,0,.3-.1-.2,0-.3,0-.3.1Z"/>
        <path class="cls-2" d="M65.9,36.9c-.1,0-.3.1-.4.2.2,0,.3-.1.4-.2Z"/>
        <path class="cls-2" d="M95.6,12.9c0,.1,0,.2.1.4,0,0,0,.1,0,.2l-.2-.6Z"/>
        <path class="cls-2" d="M78.5,5.8c.2-.2-.2,0-.7.2l-.5.2c.4-.1.8-.3,1.2-.4Z"/>
        <path class="cls-2" d="M35.6,18s0,0,0,0c0,0,0,0,0,0h0Z"/>
        <path class="cls-2" d="M64.3,10.3c0,0-.2,0-.2,0,0,0,.1,0,.2,0Z"/>
        <path class="cls-2" d="M93.9,8.2l.6,1.8v-.5c-.3-.2-.4-1.1-.6-1.3Z"/>
        <path class="cls-2" d="M86.3,3.4h.2c.9-.3,1.9-.6,2.8-.9.7-.2,1.3,0,1.8.3.3.3.4.6.4.8,0,.2.2.4.3.6.2.3.3.6.5,1.7h0c1,3.3,2.1,6.7,3.2,10.1.5,1.7,1.1,3.4,1.6,5,.3.8.5,1.6.8,2.4.2.6,0,1.2-.3,1.7h0c-.1.1-.3.3-.5.4-.1,0-.2.1-.3.1h-.5c0,.1-1.9.7-1.9.7-1.3.4-2.5.8-3.7,1.2-2.5.8-5,1.6-7.4,2.4-5,1.6-9.9,3.2-14.9,4.8-.9.3-.3.3-1.1.6-.3.1-1.1.4-1.2.3.7-.2.3-.2.5-.3-1.1.4-2.6.8-3.6,1.2l.9-.2c-.4.2-1,.3-1.4.4.1,0-.4,0-.1-.1-2.1.9-1.7.4-3.4,1.1-.3.3-2.5,1.1-3.9,1.7l-.8.2c1-.3,0-.1,1.2-.5-1.1.3-2,.7-3,1,.2,0,.2,0-.2.2-.6.2-.7.1-1.4.3l.7-.3c-.5,0-.9.3-1.3.4-.2,0-1.2.3-1.1.2-.9.4-1.3.4-2.3.8,1.1-.3-.2.2-.1.2l1.2-.4c-1.7.5.5-.2.4-.3.8-.2-1,.5.3,0-1.6.6-1.9.6-3.5,1.2,1-.3-.2.1.4,0-1.2.4-.3,0-.7.1-.7.2-.9.2-1.5.5-1.1.3.1-.1-.4,0,.4-.2,3.1-.9,2.7-1,.6-.2,1.2-.5,2.1-.8-.7.2-1.8.4-2.7.8v.2c-.7.2-.8.4-1.3.5.2-.1-.2,0-.8.2.2,0,.4-.1.3,0-1,.3-1.1.5-2.3.9,1-.3,1.2-.3,2.2-.5-.2.2-.6.2-1.2.4,0,0,.2,0,0,0l-.6.2c-1.2.4.1-.2-.9,0-.7.1-.9.4-1.5.5,0,0,0,0,.1,0-.1,0-.2,0-.3,0h0c-.6.2-1.4.4-1.5.6,0,0-.6.2-.8.3-.4.1-1.2.5-1.8.6h0c-.8.2-1.5.4-1.3.3l-1.3.4h.1c-1.2.3-1.1.3-1.8.6-.9.2-2.4.7-2.9,1,0,0-.2,0-.5.2h.5c-.9.2-.8.2-1.4.4.1,0,.2,0-.2,0-.1,0-.2,0-.4.1,0,0,.2,0,.3-.1h-.1c-.8.1-1.1.4-1.9.6,0,0,.2,0,.3-.1-.5.1-1.1.2-1.3.3-.1,0-.3,0-.4.2h-.3c.1,0,.2,0,.3,0-.2,0-.4.2-.4.2l-1.2.3c-.2,0-.5.2-.7.3h-.2c-.4.2-.4.1-.4.1-1.5.3-2.2.8-3.8,1.2-.3.2.4,0,.4,0-.2.1-1.1.5-1.5.6-.7.1-2.9.7-2.6.5-.3.1-.4.1-.5.2,0,0,0,0,.1,0,.2,0,.5,0,.1,0h-.1c.4,0,.8-.2,1.1-.2.1,0-1,.5-1.4.5,0,0,.1,0,.2-.2-.6.1-.8.1-1,.2-.2,0-.3,0-.7,0-.4-.3-.5-.4-.5-.4,0,0,.1,0,0-.1-.3-.2-.5-.5-.6-.7h0c-.3-.6-.4-.8-.6-1.7.3.6-.4-1.4,0-.5-.1-.5-.3-.6-.3-.9-.2-.3.1.5.2.7,0,.2-.4-1.1-.6-1.7,0,0,.2.4,0-.3,0-.1-.3-.6-.3-1,0,0-.3-.8-.4-1.2.1.5.3,1.1.1.8-.1-.3-.3-.6-.5-1.4v.6c-.2-.7-.1-1.2-.5-2.1.2.4.3.6.4,1-.2-.4-.5-1.3-.8-1.9v-.8c-.2,0-.4-.9-.5-.9-.3-1,.3.8.4.8-.3-1.3-.4-1-.7-2.2l.2.4c-.1-.4-.4-1.2-.4-1.2,0,0,0,.2.1.5-.2-.2-.7-1.8-.8-1.6l.2.6c-.3-.8-.6-1.4-.7-2.1-.1-.5.2.3.4.6-.2-.8-.4-.6-.7-1.5.1.5,0,.4,0,.1.2.6.5,1.7.5,1.5v-.2s.1.3.2.5c.2.7,0,.4,0,.5.4,1.3.2,0,.5,1.2v.2c.2.5.5,1.4.7,1.5,0,.5.5,1.3.6,1.8-.2.2-.6-1.9-.9-2.5.1.6-.2-.3-.3-.5l.7,1.9c0,.2,0,.7.3,1.1h0c.3.6.3.4.5,1,0,.1,0,0-.1-.1.2.6.2.5.4.9.2.6-.2-.3,0,.2.3.7.3,1.1.5,1.7,0-.3.9,2.3.6,1l.5,1.4c0,.5-.5-.9-.5-.5l-.4-1.1c0,.2.9,2.4.9,3.2.2.6.2.5.5,1.6v-.2c.2.6.2.8.2.9.1.4.3.7.5,1,0,0-.2-.2-.3-.4.2.5.4.6.5.7.2.2.6.4,1,.6-.1,0-.3,0-.4-.1.3.1.6.2.6.2.2,0,.4,0,.5,0-.1,0-.4-.1-.9-.4.7.4,1.5.3,2.1.1.6-.2,1.2-.3,1.8-.5,0,0-.5.3-.4.2.6-.2,1.2-.4,1.2-.5.1,0,.2,0,.3-.1.1,0,.3,0,.6,0,0,0,.2,0,.4,0,.2-.2,1.3-.5,1.6-.6-.3,0-.6.2-.9.3.5-.2.9-.5,1.2-.5-.9.4,1-.2-.3.3,1-.2.5-.3,1.5-.5l.7-.2c0,.1-1,.4-.9.4l.4-.2c-.4.2-2.1.7-3.1,1.1l2.1-.6c2.6-.9,5.9-1.9,8.1-2.8h0s0,0,0,0h.1s.4-.2.4-.2c.5,0,1.5-.4,2.3-.6q-.5.1-.6,0c0-.1.1-.2.9-.4,0,0-.4.2.1,0-.3,0,0,0,.3-.2.4,0,1.1-.3,1.2-.3-.2,0-.4.1-.5.1-.2,0,.8-.2.2,0l.8-.3c.5,0-.3.2,0,.1,1.3-.4,1.9-.8,3-1.2,0,0,0,.2,0,.1.9-.2,1.8-.7,2.8-1.1-.1,0-.5.2-.8.3,3.1-.9,5.6-1.7,8.5-2.5l.7-.4.8-.2c3.1-.9,5.3-1.7,8.2-2.7.9-.3.6,0,1-.2,2-.6,2.4-.9,4.3-1.5-.2.1-.6.4.2.1.1,0,.2-.2.7-.3h-.2c.5,0,.9-.2,1.9-.4,1.7-.5,3.3-1.2,4.6-1.8,1.5-.5-.1.2.2.1-1.1.3-.7.3-.9.4.5-.2,1.2-.5,1.5-.5.8-.3,1.1-.4,1.9-.7-.4.2-.7.2-.4,0,.7-.2,2.3-.7,2.2-.6,3.7-1.2,7.8-2.5,11.8-3.8.6-.3-.5.1-.2,0,.9-.4.8-.2,1.5-.5l-.3.2c1.2-.4,2.4-.9,3.5-1.3-.2.1.9-.2,0,.1.5-.2,1.3,0,1.7-.3h-.7c0-.2.8-.4.7-.4.5,0,1.1-.2,1.4-.3.2,0-.7.3-1.1.4,0,.2,1.6-.4.9,0,1-.3-.2,0,.4-.3l.9-.2-.7.2c.7-.3.9-.4,1.9-.7l.9-.4c.1,0,.7-.2,1.2-.3l-.3.2c.7-.2.9-.3,1.4-.4-.4.2-.6.2-.8.3l.8-.2c0,0,.4-.3-.1-.1.3-.2.6-.3,1-.5.4-.2,1-.5,1.5-1.5.2-.4.2-.2,0,.1-.1.3-.4.6-.2.5.7-.9.7-1.8.6-2.3-.1-.6-.4-.9-.5-1.4-.4-1.3-.5-1.2-.9-2.6.2.4-.2-1-.2-1.2l.2.5c-.2-.4-.3-.8-.2-.7,0,.1-.6-1.7-1-2.6v.2c-.3-.7-.7-1.7-.9-2.5-.4-1.1-.4-.9-.7-1.7,0-.5,0-.5.2-.3,0,.3.2.8.4,1.3.5,1.4,1.1,2.5,1.5,4,.4.6-.3-1-.5-1.7,0,0,0,0,0,.1,0,0,0-.1,0-.2.2.5.5,1.3.6,1.5-.3-.9-.4-.6-.7-1.7-.3-.8-.4-1.5-.5-2-.2-.5-.4-.5-.8-1.8l.3.5c-.5-1.5-.4-.6-.8-2,.1.5-.3-.4,0,.5-.2-.4-.5-1.4-.7-2.2,0-.2,0,0,0,0,.2.9.5,1.3.6,2l.3.5c.2.8.1.9,0,.4,0,.2.2.4.2.6-.1.2-.2-.9-.5-1.2l.2.5c0,.3-.5-1.2-.7-1.9-.2-.8-.4-1.5-.3-1.6l.4,1.1c-.1-.6-.5-1.3-.7-2,0,0,0-.1,0-.2,0,0,0,0,0,0,0-.1,0-.3,0-.4-.2-.5-.5-1.3-.6-1.8h0c0,0,0,.1,0,.1.2.5.3,1.2.2.8-.4-1.1-.3-1.4-.4-1.7.3.2.4,1.1.6,1.7,0-.2,0-.5-.2-.9-.1-.4-.3-.9-.7-1.5.2.2.5.5.6.9.1.3.2.6.3.7,0-.2-.1-.4-.2-.6,0-.2-.2-.4-.2-.5-.2-.3-.4-.6-.9-1,0,0,.4.2.6.4.2.2.4.5.4.4-.1-.2-.3-.5-.5-.7.4.4.5.6.5.6,0,0,0,0,0,0,0-.1,0-.4.3.4-.3-.7-.6-.9-1.5-1.6.3.2.8.8,0,.2-.3-.2-.7-.3-1-.4-.2,0,0,0,.3,0,.3,0,.5.1.1,0-.4-.1-.8-.2-1.2-.1,0,0,.6,0,.3.1-.3,0-.6,0-.9.2-.3.1-.4.3-.8.4-.5.2-.9.3-1.1.3-1.2.5-2.8,1-3.9,1.5.8-.3,0-.1-.6,0,.9-.3.9-.4.8-.5-.5.2-.9.4-.6.4-.9.2-.6.3-1.4.5-.5.1.2-.2,0-.2-1,.3-.2.2-1.3.5,0,0,.2,0,0,0-.6.2-1.2.4-1.3.5-.7,0-1.7.6-1.7.4-1.4.5.2,0,0,.1-.6.2-1.6.5-2,.6.3-.1.7-.3,1-.3h-.3c-1.8.5-1,.6-2.8,1,.9-.3.3-.2.7-.4-.3.1-1.6.5-.8.3-.6.2-1.1.3-1.5.4-.6.2-1.2.4-1.5.6-.9.3-1.6.4-2,.5-1.9.7-3.6,1.1-5.6,1.8h.1c-1.5.4.7-.1-.9.4.2-.2-1,.2-1.5.3-2,.6-3.4,1.2-5.2,1.7,0,0,.1,0,.5-.2-1.4.4-2.5.8-3.7,1.2h0c-2,.5-3.8,1.2-5.8,1.9.2,0,.2-.1.3-.2-1,.3-2.7.8-3.4,1.2-1.3.3-.8.3-2.4.7,0,0,.2,0,.3-.1-.8.2-1.3.4-2.1.6-1.7.6-2.1.9-4.1,1.5-.2-.1,1.2-.4,1.2-.6-.4.2-.7.3-1.3.4.3-.2,0,0,.3-.2-.2,0-.6.2-1,.4-.4.2-.7.3-.7.3,0,0,.1,0,.5-.1-.4.3-2,.6-2.9,1,.3,0,1.3-.4,1-.2-1.3.4-1.7.7-2.6,1-1.2.3.8-.4.6-.5-.2,0-.7,0-.2-.1-1.1.3-1.8.7-2.8,1h0c-1.3.4-2.7,1-3.9,1.3l.6-.2c-.2,0-.9.3-1.3.5,0,0-.9.2-.5,0-.5.4-3,1.1-3.7,1.5-.4,0-.1,0,0-.2.9-.3,1.2-.3,1.6-.5-.7.2-1.2.4-1.1.3-.7.3-2.4.9-2.7,1.1-.5.1-1,.2-.9,0-2.2.8,1.2,0-1.3.7-1.1.3,1.1-.5-.5,0h.3c-1.2,0-.7.3-2,.7-.2,0,.9-.4,0-.2-1.1.4-1.6.8-2.8,1.1h.2c-.7.1-2.2.6-2.9.8,0,0,0,0,.2,0-1.4.4-.6.2-1.7.5l-.3.2c.6-.1,1.7-.4,2.4-.7-.7.3,1.2-.2.8,0h.1c1.9-.5,4.3-1.2,6.7-1.9,1.4-.6,2.5-.8,4.1-1.4.2-.2.3-.1,1.6-.6-.7.2,0,.1.4,0,.3-.1.6-.2.9-.4.3,0,2.1-.5,2.7-.8.8-.2-.2.1-.4.2.4,0,.7-.3,1-.3,0,0,0,0,0,0,1.3-.4,2-.6,3.4-1,0-.2,1.3-.5,1.9-.7-.2.1.8-.2,1.1-.3l.7-.3c.7-.3,1-.2,1.9-.6h-.2c.7-.2,2.4-.7,3.1-.8,6-2.2,9.5-2.9,16-5,.4-.2-.3,0,0-.1.7-.2.8-.3,1.4-.5-.5.1-.4.2-.4,0l-.9.3s0,0,0,0c-.3.1-.7.3-1.1.4.6-.2.7-.4,1.5-.6,0,0-.2,0-.4.1.6-.2.7-.3,1.1-.4.6-.2.4-.2.5-.1l1.8-.5c.9-.4,2-.7,2.3-.7-.2.2-1.2.4-1.6.7h.7c0-.1,0-.2,0-.2l.9-.3h0c.1,0,.2-.1.5-.2,0,0,.1,0,0,0l.7-.3c-.4.2.6-.2.5,0,2.2-.7,2.7-1,4.7-1.5-.3,0,.6-.3,1.2-.5.3,0,.4,0,.2,0l.8-.3c1-.2,1.9-.6,3.4-1h0c.5-.2,1.1-.4,1.9-.6h-.1c1-.1.7-.3,1.8-.6,0,0-.7,0-.9,0,.3,0,1.4-.3,1.1-.3,1.1-.4.7-.2.8-.2l.6-.3c.7-.2.3,0,0,.2.7-.3,1.4-.5,2.2-.7h-.3c0,.1,1-.2,1-.2.7-.3,1.6-.6,2.5-.8l-.6.3c.6-.1.3-.1.5-.2,1-.4,1.2-.4,1.7-.5,1.5-.6,3.2-.8,4.4-1.4ZM19.8,50.7h.1c-.3,0-.5.2-.1,0ZM28.3,48c-1,.4-.7.2-.8.2,1-.3,1.6-.5,2.5-.8-.2,0-.2,0-.2,0,.4-.1.7-.2.9-.2-.4.3-2.8.8-2.3.7ZM9,53.3s0,0,.1,0h0s-.1,0-.1,0ZM14.3,53c0,0,.2,0,.4,0-.1,0-.2,0-.4,0ZM24.5,49.9c.2,0,.8-.2,1.2-.3-.2,0-.5.2-1.2.3ZM88.5,29.4c-.3.1-.9.3-.3.2.2-.1.8-.2.9-.3,0,0,0,0,0,0-.3,0-.6.1-.7.1ZM92.7,5.3c0,0,.2.3.2,0,0,0,0,0,0,0,0,0,0-.2,0,0,0-.2-.1-.5-.2-.7-.2,0-.4-.5,0,.6Z"/>
        <path class="cls-2" d="M96.6,15.2c0-.1,0-.2,0-.3,0,0,0,.2,0,.3Z"/>
        <path class="cls-2" d="M92.8,4.8s0,.3.2.6c0,0,0-.3-.2-.6Z"/>
        <path class="cls-2" d="M3.7,36.6v.3c.1,0,0-.6,0-.6-.4-1-.5-1-.6-1.2.4.9.5,1.4.9,2.6l-.2-1Z"/>
        <path class="cls-2" d="M3.4,37.3c0,.1,0,.4,0,.5h0c0,.1-.2-.5-.2-.5Z"/>
        <path class="cls-2" d="M6.9,49.2l-.3-1c-.1-.3.1.8.3,1Z"/>
        <path class="cls-2" d="M6.4,44.7l-.2-.5c.1.5.3,1.1.4,1.1-.2-.6,0-.2-.2-.7Z"/>
        <path class="cls-2" d="M7.7,51.7c.1.1.1.3.2.6,0,.3.2.5.3.6,0-.1-.3-.4-.4-.7,0-.3-.2-.5-.2-.5Z"/>
        <path class="cls-2" d="M8.4,50.7c0-.3-.2-.8-.4-1.4.2.5.3,1.2.4,1.4Z"/>
        <path class="cls-2" d="M12.5,53.6c0,0-.4.2-.9.3.2,0,.2-.1.4-.2-.7.3-.9.3-1.6.3.4,0,.8,0,1.2,0,.3,0,.5-.1.5,0,.4-.2.9-.5.4-.4Z"/>
        <path class="cls-2" d="M8.9,52.1c-.2-.4-.2-.8-.4-1.4,0,.1,0,.3.2,1l-.2-.2c.2.6,0-.2.3.6Z"/>
        <path class="cls-2" d="M15.3,52.9h-.3c-.7.3-1.6.6-1.9.8.8-.3,1.9-.6,2.3-.8Z"/>
        <path class="cls-2" d="M10.6,53.5s0,0,0-.1c-.6-.1,0,0-.2,0-.2,0-.4-.1-.6-.2.7.2,0,.1.7.2Z"/>
        <path class="cls-2" d="M12.8,52.9l.9-.3h-.7c-1,.5,0,.2-.1.3Z"/>
        <path class="cls-2" d="M13.9,52.6h.1s1.3-.6,1.3-.6c-.8.3-.8.3-1.4.6Z"/>
        <path class="cls-2" d="M30.4,48.1c.1,0-.7,0-.3,0-.1,0,.9-.2.3,0Z"/>
        <path class="cls-2" d="M26.9,48.3c.4,0,1.6-.6,2.2-.8-.6.2-2.3.7-2.2.8Z"/>
        <path class="cls-2" d="M29.3,47.4s-.1,0-.2,0c0,0,.2,0,.2,0Z"/>
        <path class="cls-2" d="M52.2,39.9c0,0,.1,0,.2,0,0,0-.1,0-.2,0Z"/>
        <path class="cls-2" d="M51.6,40.1c-.4.1-1.1.4-1.2.5.6-.2,1.1-.4,1.8-.7-.3,0-.6.2-.5.2Z"/>
        <path class="cls-2" d="M56.9,38.4c-.3.1-.6.2-.5.2.2,0,.7-.3.5-.2Z"/>
        <path class="cls-2" d="M92.9,28.4c.5-.1.8-.3.6-.3-.6.2-.2.1-.6.3Z"/>
        <polygon class="cls-2" points="94.2 27.9 94.3 27.9 94.6 27.8 94.2 27.9"/>
        <path class="cls-2" d="M97.9,26.7s-.1.1-.2.2c.2-.1.4-.3.2-.2Z"/>
        <path class="cls-2" d="M97.5,26.9s0,0,.1,0c0,0,0,0-.1,0Z"/>
        <path class="cls-2" d="M97.2,27h0c0,0,.2,0,.3-.1-.1,0-.2.1-.3.1Z"/>
        <path class="cls-2" d="M98.9,25.7c-.2.2-.4.4-.7.6-.3.3-.1.2,0,0,.2-.2.4-.4.1,0,.2-.2.3-.4.4-.6Z"/>
        <path class="cls-2" d="M99.1,22.7c-.2-.6-.6-1.5-.6-1.9-.6-1.8,0,.5-.8-1.6.6,2,.5.9,1,2.7-.2-.9.2.5.4.8Z"/>
        <path class="cls-2" d="M99,23.1c0,0-.2-.7-.3-1,0,.2.1.6.3,1Z"/>
        <polygon class="cls-2" points="98 19.2 97.8 18.6 97.7 18.5 98 19.2"/>
        <path class="cls-2" d="M97.3,17.1l.2.5c0-.2-.3-1-.2-.5Z"/>
        <path class="cls-2" d="M96.5,14.2c-.1-.5-.4-.9,0,.1v-.2c0,0-.2-.5,0,.1Z"/>
        <path class="cls-2" d="M94.1,7.5c.1.3.3.8.3.7l-.3-.9v.3Z"/>
        <path class="cls-2" d="M93.7,7.8c0,.4.3.9.5,1.5-.2-.7-.2-.6-.5-1.5Z"/>
        <path class="cls-2" d="M93.8,6.4c.1.2.2.7.3.9,0-.1-.2-.8-.3-.9Z"/>
        <path class="cls-2" d="M93.3,4.9c0-.3,0,0,0-.2,0-.3-.2-.7-.3-1-.1-.3-.2-.6-.3-.8,0,.2,0,.5-.1.2.4,1.1.7,1.6.8,2.1l.5.8c-.2-.9-.3-.6-.5-1.2Z"/>
        <path class="cls-2" d="M93.7,7.1v-.6c-.1.1-.3-.3-.4-.6,0,.2.3.9.4,1.2Z"/>
        <polygon class="cls-2" points="88.4 1.3 87.2 1.7 87.6 1.6 88.4 1.3"/>
        <polygon class="cls-2" points="87.6 1.5 87.6 1.5 86.7 1.9 87.6 1.5"/>
        <polygon class="cls-2" points="86.3 1.9 86.5 1.8 87.2 1.6 86.3 1.9"/>
        <path class="cls-2" d="M83.8,2.7h.2c.3-.1.9-.3.9-.3-.3.1-.9.3-1.1.3Z"/>
        <path class="cls-2" d="M75.8,6.7c.2-.1,0,0,0,0l-.3.2c.1,0,.3-.1.4-.1Z"/>
        <path class="cls-2" d="M74.3,7l-.9.4c1-.3,1.2-.4,2.1-.7-.4,0-.9.3-1.4.5h.2Z"/>
        <path class="cls-2" d="M56.3,12.7c0,0-.1,0,.5-.3-.9.3-1.7.6-2.7.9.2,0-.6.3-.2.2l1.2-.4h-.2c.8-.1.5-.1,1.4-.4Z"/>
        <path class="cls-2" d="M8.9,27.1c0,0,0,0-.2,0-.7.3.3,0,.2,0Z"/>
      </g>
    </g>
  </g>
  <g id="Layer_1" data-name="Layer 1">
    <g>
      <text class="cls-3" transform="translate(11.3 46.1) rotate(-17.7)"><tspan x="0" y="0">EXPIRED</tspan></text>
      <g>
        <path class="cls-1" d="M3.4,28.8c.3-.2-.1,0-.5.2.2,0,.3-.2.5-.2Z"/>
        <path class="cls-1" d="M2.9,29c-.1,0-.2.1-.3.2.1,0,.2-.1.3-.2Z"/>
        <path class="cls-1" d="M1.7,32.2c-.2-.4-.3-.9-.2-1.3,0-.4.2-.8.3-1.1-.3.4-.5,1-.4,1.5,0,.5.2.9.3,1Z"/>
        <path class="cls-1" d="M1.6,30.9h0c0,.1,0,.4,0,.6,0-.2,0-.4,0-.6Z"/>
        <path class="cls-1" d="M1.8,30.4h0c0,.5,0,.9,0,1.2,0-.4,0-.8,0-1.2Z"/>
        <path class="cls-1" d="M2.5,34.9l-.3-.8c-.2-.8.3.5.2,0-.3-1-.3-.3-.6-1.5,0,.1.6,2,.5,1.8.3,1.1,0,0,.3.6Z"/>
        <path class="cls-1" d="M38.4,44.3s0,0,.1,0c0,0,0,0-.1,0Z"/>
        <path class="cls-1" d="M51.5,40.1c.2,0,.4-.1.5-.1,0,0-.1,0-.2,0h-.3Z"/>
        <path class="cls-1" d="M30.2,47.2c-.2,0-.4,0-.5.1.1,0,.3,0,.5-.1Z"/>
        <path class="cls-1" d="M94,9.3s0,0,0,0c0,0,0,0,0,0h0c0-.1,0,0,0,0Z"/>
        <path class="cls-1" d="M66.2,35.2c.2,0,.4-.1.6-.2-.3.1-.5.2-.6.2Z"/>
        <path class="cls-1" d="M25.5,48.7c0,0,.1,0,.2,0,0,0-.2,0-.2,0h0s0,0,0,0Z"/>
        <path class="cls-1" d="M47.2,41.3c.2,0,.3,0,.5-.1-.2,0-.3,0-.5.1Z"/>
        <path class="cls-1" d="M6.3,47.2c0,.2.1.4.2.6,0-.1,0-.3-.2-.6Z"/>
        <path class="cls-1" d="M7.8,51.9h0s0,0,0,0Z"/>
        <path class="cls-1" d="M10.4,53.9h0s0,0,0,0Z"/>
        <path class="cls-1" d="M6.5,47.7c0,.4,0,.6.3,1h0c0,.2.3.6.4,1,0,0,0,0,0-.1,0-.2-.1-.4-.2-.8-.1-.4-.3-.7-.4-1.1Z"/>
        <path class="cls-1" d="M38.4,44.4c0,0-.4.1,0,0h0Z"/>
        <path class="cls-1" d="M34.3,45.8c.1,0,.3,0,.4-.1-.1,0-.3,0-.4.1Z"/>
        <path class="cls-1" d="M19.1,50.6s0,0,0,0c0,0,0,0,0,0Z"/>
        <path class="cls-1" d="M35.1,45.6h-.4c.1,0,.2,0,.4,0Z"/>
        <path class="cls-1" d="M23.7,49.3s0,0,0,0c0,0,0,0,0,0Z"/>
        <path class="cls-1" d="M35.7,17.8c.3-.1.5-.1.8-.2.6-.3-1.3.4-.4,0-.3,0-.5.2-.7.3h.4c.6-.3-.4,0,0,0Z"/>
        <path class="cls-1" d="M93,5.5h0s0,.1,0-.4c-.2-.4,0,.3-.4-.4,0,.1.1.4.2.6,0-.3.1,0,.3.3Z"/>
        <path class="cls-1" d="M92.7,5.2h0s0,.1,0,.1c0,.1,0,.2,0,.3,0,0,0-.3,0-.4Z"/>
        <path class="cls-1" d="M45.9,14.5c.1,0,.2,0,.3-.1-.2,0-.3,0-.3.1Z"/>
        <path class="cls-1" d="M65.6,36.7c-.1,0-.3.1-.4.2.2,0,.3-.1.4-.2Z"/>
        <path class="cls-1" d="M95.2,12.7c0,.1,0,.2.1.4,0,0,0,.1,0,.2l-.2-.6Z"/>
        <path class="cls-1" d="M78.1,5.7c.2-.2-.2,0-.7.2l-.5.2c.4-.1.8-.3,1.2-.4Z"/>
        <path class="cls-1" d="M35.3,17.8s0,0,0,0c0,0,0,0,0,0h0Z"/>
        <path class="cls-1" d="M63.9,10.2c0,0-.2,0-.2,0,0,0,.1,0,.2,0Z"/>
        <path class="cls-1" d="M93.6,8l.6,1.8v-.5c-.3-.2-.4-1.1-.6-1.3Z"/>
        <path class="cls-1" d="M86,3.2h.2c.9-.3,1.9-.6,2.8-.9.7-.2,1.3,0,1.8.3.3.3.4.6.4.8,0,.2.2.4.3.6.2.3.3.6.5,1.7h0c1,3.3,2.1,6.7,3.2,10.1.5,1.7,1.1,3.4,1.6,5,.3.8.5,1.6.8,2.4.2.6,0,1.2-.3,1.7h0c-.1.1-.3.3-.5.4-.1,0-.2.1-.3.1h-.5c0,.1-1.9.7-1.9.7-1.3.4-2.5.8-3.7,1.2-2.5.8-5,1.6-7.4,2.4-5,1.6-9.9,3.2-14.9,4.8-.9.3-.3.3-1.1.6-.3.1-1.1.4-1.2.3.7-.2.3-.2.5-.3-1.1.4-2.6.8-3.6,1.2l.9-.2c-.4.2-1,.3-1.4.4.1,0-.4,0-.1-.1-2.1.9-1.7.4-3.4,1.1-.3.3-2.5,1.1-3.9,1.7l-.8.2c1-.3,0-.1,1.2-.5-1.1.3-2,.7-3,1,.2,0,.2,0-.2.2-.6.2-.7.1-1.4.3l.7-.3c-.5,0-.9.3-1.3.4-.2,0-1.2.3-1.1.2-.9.4-1.3.4-2.3.8,1.1-.3-.2.2-.1.2l1.2-.4c-1.7.5.5-.2.4-.3.8-.2-1,.5.3,0-1.6.6-1.9.6-3.5,1.2,1-.3-.2.1.4,0-1.2.4-.3,0-.7.1-.7.2-.9.2-1.5.5-1.1.3.1-.1-.4,0,.4-.2,3.1-.9,2.7-1,.6-.2,1.2-.5,2.1-.8-.7.2-1.8.4-2.7.8v.2c-.7.2-.8.4-1.3.5.2-.1-.2,0-.8.2.2,0,.4-.1.3,0-1,.3-1.1.5-2.3.9,1-.3,1.2-.3,2.2-.5-.2.2-.6.2-1.2.4,0,0,.2,0,0,0l-.6.2c-1.2.4.1-.2-.9,0-.7.1-.9.4-1.5.5,0,0,0,0,.1,0-.1,0-.2,0-.3,0h0c-.6.2-1.4.4-1.5.6,0,0-.6.2-.8.3-.4.1-1.2.5-1.8.6h0c-.8.2-1.5.4-1.3.3l-1.3.4h.1c-1.2.3-1.1.3-1.8.6-.9.2-2.4.7-2.9,1,0,0-.2,0-.5.2h.5c-.9.2-.8.2-1.4.4.1,0,.2,0-.2,0-.1,0-.2,0-.4.1,0,0,.2,0,.3-.1h-.1c-.8.1-1.1.4-1.9.6,0,0,.2,0,.3-.1-.5.1-1.1.2-1.3.3-.1,0-.3,0-.4.2h-.3c.1,0,.2,0,.3,0-.2,0-.4.2-.4.2l-1.2.3c-.2,0-.5.2-.7.3h-.2c-.4.2-.4.1-.4.1-1.5.3-2.2.8-3.8,1.2-.3.2.4,0,.4,0-.2.1-1.1.5-1.5.6-.7.1-2.9.7-2.6.5-.3.1-.4.1-.5.2,0,0,0,0,.1,0,.2,0,.5,0,.1,0h-.1c.4,0,.8-.2,1.1-.2.1,0-1,.5-1.4.5,0,0,.1,0,.2-.2-.6.1-.8.1-1,.2-.2,0-.3,0-.7,0-.4-.3-.5-.4-.5-.4,0,0,.1,0,0-.1-.3-.2-.5-.5-.6-.7h0c-.3-.6-.4-.8-.6-1.7.3.6-.4-1.4,0-.5-.1-.5-.3-.6-.3-.9-.2-.3.1.5.2.7,0,.2-.4-1.1-.6-1.7,0,0,.2.4,0-.3,0-.1-.3-.6-.3-1,0,0-.3-.8-.4-1.2.1.5.3,1.1.1.8-.1-.3-.3-.6-.5-1.4v.6c-.2-.7-.1-1.2-.5-2.1.2.4.3.6.4,1-.2-.4-.5-1.3-.8-1.9v-.8c-.2,0-.4-.9-.5-.9-.3-1,.3.8.4.8-.3-1.3-.4-1-.7-2.2l.2.4c-.1-.4-.4-1.2-.4-1.2,0,0,0,.2.1.5-.2-.2-.7-1.8-.8-1.6l.2.6c-.3-.8-.6-1.4-.7-2.1-.1-.5.2.3.4.6-.2-.8-.4-.6-.7-1.5.1.5,0,.4,0,.1.2.6.5,1.7.5,1.5v-.2s.1.3.2.5c.2.7,0,.4,0,.5.4,1.3.2,0,.5,1.2v.2c.2.5.5,1.4.7,1.5,0,.5.5,1.3.6,1.8-.2.2-.6-1.9-.9-2.5.1.6-.2-.3-.3-.5l.7,1.9c0,.2,0,.7.3,1.1h0c.3.6.3.4.5,1,0,.1,0,0-.1-.1.2.6.2.5.4.9.2.6-.2-.3,0,.2.3.7.3,1.1.5,1.7,0-.3.9,2.3.6,1l.5,1.4c0,.5-.5-.9-.5-.5l-.4-1.1c0,.2.9,2.4.9,3.2.2.6.2.5.5,1.6v-.2c.2.6.2.8.2.9.1.4.3.7.5,1,0,0-.2-.2-.3-.4.2.5.4.6.5.7.2.2.6.4,1,.6-.1,0-.3,0-.4-.1.3.1.6.2.6.2.2,0,.4,0,.5,0-.1,0-.4-.1-.9-.4.7.4,1.5.3,2.1.1.6-.2,1.2-.3,1.8-.5,0,0-.5.3-.4.2.6-.2,1.2-.4,1.2-.5.1,0,.2,0,.3-.1.1,0,.3,0,.6,0,0,0,.2,0,.4,0,.2-.2,1.3-.5,1.6-.6-.3,0-.6.2-.9.3.5-.2.9-.5,1.2-.5-.9.4,1-.2-.3.3,1-.2.5-.3,1.5-.5l.7-.2c0,.1-1,.4-.9.4l.4-.2c-.4.2-2.1.7-3.1,1.1l2.1-.6c2.6-.9,5.9-1.9,8.1-2.8h0s0,0,0,0h.1s.4-.2.4-.2c.5,0,1.5-.4,2.3-.6q-.5.1-.6,0c0-.1.1-.2.9-.4,0,0-.4.2.1,0-.3,0,0,0,.3-.2.4,0,1.1-.3,1.2-.3-.2,0-.4.1-.5.1-.2,0,.8-.2.2,0l.8-.3c.5,0-.3.2,0,.1,1.3-.4,1.9-.8,3-1.2,0,0,0,.2,0,.1.9-.2,1.8-.7,2.8-1.1-.1,0-.5.2-.8.3,3.1-.9,5.6-1.7,8.5-2.5l.7-.4.8-.2c3.1-.9,5.3-1.7,8.2-2.7.9-.3.6,0,1-.2,2-.6,2.4-.9,4.3-1.5-.2.1-.6.4.2.1.1,0,.2-.2.7-.3h-.2c.5,0,.9-.2,1.9-.4,1.7-.5,3.3-1.2,4.6-1.8,1.5-.5-.1.2.2.1-1.1.3-.7.3-.9.4.5-.2,1.2-.5,1.5-.5.8-.3,1.1-.4,1.9-.7-.4.2-.7.2-.4,0,.7-.2,2.3-.7,2.2-.6,3.7-1.2,7.8-2.5,11.8-3.8.6-.3-.5.1-.2,0,.9-.4.8-.2,1.5-.5l-.3.2c1.2-.4,2.4-.9,3.5-1.3-.2.1.9-.2,0,.1.5-.2,1.3,0,1.7-.3h-.7c0-.2.8-.4.7-.4.5,0,1.1-.2,1.4-.3.2,0-.7.3-1.1.4,0,.2,1.6-.4.9,0,1-.3-.2,0,.4-.3l.9-.2-.7.2c.7-.3.9-.4,1.9-.7l.9-.4c.1,0,.7-.2,1.2-.3l-.3.2c.7-.2.9-.3,1.4-.4-.4.2-.6.2-.8.3l.8-.2c0,0,.4-.3-.1-.1.3-.2.6-.3,1-.5.4-.2,1-.5,1.5-1.5.2-.4.2-.2,0,.1-.1.3-.4.6-.2.5.7-.9.7-1.8.6-2.3-.1-.6-.4-.9-.5-1.4-.4-1.3-.5-1.2-.9-2.6.2.4-.2-1-.2-1.2l.2.5c-.2-.4-.3-.8-.2-.7,0,.1-.6-1.7-1-2.6v.2c-.3-.7-.7-1.7-.9-2.5-.4-1.1-.4-.9-.7-1.7,0-.5,0-.5.2-.3,0,.3.2.8.4,1.3.5,1.4,1.1,2.5,1.5,4,.4.6-.3-1-.5-1.7,0,0,0,0,0,.1,0,0,0-.1,0-.2.2.5.5,1.3.6,1.5-.3-.9-.4-.6-.7-1.7-.3-.8-.4-1.5-.5-2-.2-.5-.4-.5-.8-1.8l.3.5c-.5-1.5-.4-.6-.8-2,.1.5-.3-.4,0,.5-.2-.4-.5-1.4-.7-2.2,0-.2,0,0,0,0,.2.9.5,1.3.6,2l.3.5c.2.8.1.9,0,.4,0,.2.2.4.2.6-.1.2-.2-.9-.5-1.2l.2.5c0,.3-.5-1.2-.7-1.9-.2-.8-.4-1.5-.3-1.6l.4,1.1c-.1-.6-.5-1.3-.7-2,0,0,0-.1,0-.2,0,0,0,0,0,0,0-.1,0-.3,0-.4-.2-.5-.5-1.3-.6-1.8h0c0,0,0,.1,0,.1.2.5.3,1.2.2.8-.4-1.1-.3-1.4-.4-1.7.3.2.4,1.1.6,1.7,0-.2,0-.5-.2-.9-.1-.4-.3-.9-.7-1.5.2.2.5.5.6.9.1.3.2.6.3.7,0-.2-.1-.4-.2-.6,0-.2-.2-.4-.2-.5-.2-.3-.4-.6-.9-1,0,0,.4.2.6.4.2.2.4.5.4.4-.1-.2-.3-.5-.5-.7.4.4.5.6.5.6,0,0,0,0,0,0,0-.1,0-.4.3.4-.3-.7-.6-.9-1.5-1.6.3.2.8.8,0,.2-.3-.2-.7-.3-1-.4-.2,0,0,0,.3,0,.3,0,.5.1.1,0-.4-.1-.8-.2-1.2-.1,0,0,.6,0,.3.1-.3,0-.6,0-.9.2-.3.1-.4.3-.8.4-.5.2-.9.3-1.1.3-1.2.5-2.8,1-3.9,1.5.8-.3,0-.1-.6,0,.9-.3.9-.4.8-.5-.5.2-.9.4-.6.4-.9.2-.6.3-1.4.5-.5.1.2-.2,0-.2-1,.3-.2.2-1.3.5,0,0,.2,0,0,0-.6.2-1.2.4-1.3.5-.7,0-1.7.6-1.7.4-1.4.5.2,0,0,.1-.6.2-1.6.5-2,.6.3-.1.7-.3,1-.3h-.3c-1.8.5-1,.6-2.8,1,.9-.3.3-.2.7-.4-.3.1-1.6.5-.8.3-.6.2-1.1.3-1.5.4-.6.2-1.2.4-1.5.6-.9.3-1.6.4-2,.5-1.9.7-3.6,1.1-5.6,1.8h.1c-1.5.4.7-.1-.9.4.2-.2-1,.2-1.5.3-2,.6-3.4,1.2-5.2,1.7,0,0,.1,0,.5-.2-1.4.4-2.5.8-3.7,1.2h0c-2,.5-3.8,1.2-5.8,1.9.2,0,.2-.1.3-.2-1,.3-2.7.8-3.4,1.2-1.3.3-.8.3-2.4.7,0,0,.2,0,.3-.1-.8.2-1.3.4-2.1.6-1.7.6-2.1.9-4.1,1.5-.2-.1,1.2-.4,1.2-.6-.4.2-.7.3-1.3.4.3-.2,0,0,.3-.2-.2,0-.6.2-1,.4s-.7.3-.7.3c0,0,.1,0,.5-.1-.4.3-2,.6-2.9,1,.3,0,1.3-.4,1-.2-1.3.4-1.7.7-2.6,1-1.2.3.8-.4.6-.5-.2,0-.7,0-.2-.1-1.1.3-1.8.7-2.8,1h0c-1.3.4-2.7,1-3.9,1.3l.6-.2c-.2,0-.9.3-1.3.5,0,0-.9.2-.5,0-.5.4-3,1.1-3.7,1.5-.4,0-.1,0,0-.2.9-.3,1.2-.3,1.6-.5-.7.2-1.2.4-1.1.3-.7.3-2.4.9-2.7,1.1-.5.1-1,.2-.9,0-2.2.8,1.2,0-1.3.7-1.1.3,1.1-.5-.5,0h.3c-1.2,0-.7.3-2,.7-.2,0,.9-.4,0-.2-1.1.4-1.6.8-2.8,1.1h.2c-.7.1-2.2.6-2.9.8,0,0,0,0,.2,0-1.4.4-.6.2-1.7.5l-.3.2c.6-.1,1.7-.4,2.4-.7-.7.3,1.2-.2.8,0h.1c1.9-.5,4.3-1.2,6.7-1.9,1.4-.6,2.5-.8,4.1-1.4.2-.2.3-.1,1.6-.6-.7.2,0,.1.4,0,.3-.1.6-.2.9-.4.3,0,2.1-.5,2.7-.8.8-.2-.2.1-.4.2.4,0,.7-.3,1-.3,0,0,0,0,0,0,1.3-.4,2-.6,3.4-1,0-.2,1.3-.5,1.9-.7-.2.1.8-.2,1.1-.3l.7-.3c.7-.3,1-.2,1.9-.6h-.2c.7-.2,2.4-.7,3.1-.8,6-2.2,9.5-2.9,16-5,.4-.2-.3,0,0-.1.7-.2.8-.3,1.4-.5-.5.1-.4.2-.4,0l-.9.3s0,0,0,0c-.3.1-.7.3-1.1.4.6-.2.7-.4,1.5-.6,0,0-.2,0-.4.1.6-.2.7-.3,1.1-.4.6-.2.4-.2.5-.1l1.8-.5c.9-.4,2-.7,2.3-.7-.2.2-1.2.4-1.6.7h.7c0-.1,0-.2,0-.2l.9-.3h0c.1,0,.2-.1.5-.2,0,0,.1,0,0,0l.7-.3c-.4.2.6-.2.5,0,2.2-.7,2.7-1,4.7-1.5-.3,0,.6-.3,1.2-.5.3,0,.4,0,.2,0l.8-.3c1-.2,1.9-.6,3.4-1h0c.5-.2,1.1-.4,1.9-.6h-.1c1-.1.7-.3,1.8-.6,0,0-.7,0-.9,0,.3,0,1.4-.3,1.1-.3,1.1-.4.7-.2.8-.2l.6-.3c.7-.2.3,0,0,.2.7-.3,1.4-.5,2.2-.7h-.3c0,.1,1-.2,1-.2.7-.3,1.6-.6,2.5-.8l-.6.3c.6-.1.3-.1.5-.2,1-.4,1.2-.4,1.7-.5,1.5-.6,3.2-.8,4.4-1.4ZM19.5,50.6h.1c-.3,0-.5.2-.1,0ZM28,47.9c-1,.4-.7.2-.8.2,1-.3,1.6-.5,2.5-.8-.2,0-.2,0-.2,0,.4-.1.7-.2.9-.2-.4.3-2.8.8-2.3.7ZM8.7,53.2s0,0,.1,0h0s-.1,0-.1,0ZM14,52.9c0,0,.2,0,.4,0-.1,0-.2,0-.4,0ZM24.2,49.8c.2,0,.8-.2,1.2-.3-.2,0-.5.2-1.2.3ZM88.2,29.2c-.3.1-.9.3-.3.2.2-.1.8-.2.9-.3,0,0,0,0,0,0-.3,0-.6.1-.7.1ZM92.4,5.2c0,0,.2.3.2,0,0,0,0,0,0,0,0,0,0-.2,0,0,0-.2-.1-.5-.2-.7-.2,0-.4-.5,0,.6Z"/>
        <path class="cls-1" d="M96.3,15.1c0-.1,0-.2,0-.3,0,0,0,.2,0,.3Z"/>
        <path class="cls-1" d="M92.5,4.7s0,.3.2.6c0,0,0-.3-.2-.6Z"/>
        <path class="cls-1" d="M3.4,36.5v.3c.1,0,0-.6,0-.6-.4-1-.5-1-.6-1.2.4.9.5,1.4.9,2.6l-.2-1Z"/>
        <path class="cls-1" d="M3.1,37.2c0,.1,0,.4,0,.5h0c0,.1-.2-.5-.2-.5Z"/>
        <path class="cls-1" d="M6.6,49l-.3-1c-.1-.3.1.8.3,1Z"/>
        <path class="cls-1" d="M6.1,44.6l-.2-.5c.1.5.3,1.1.4,1.1-.2-.6,0-.2-.2-.7Z"/>
        <path class="cls-1" d="M7.4,51.6c.1.1.1.3.2.6,0,.3.2.5.3.6,0-.1-.3-.4-.4-.7,0-.3-.2-.5-.2-.5Z"/>
        <path class="cls-1" d="M8.1,50.6c0-.3-.2-.8-.4-1.4.2.5.3,1.2.4,1.4Z"/>
        <path class="cls-1" d="M12.2,53.5c0,0-.4.2-.9.3.2,0,.2-.1.4-.2-.7.3-.9.3-1.6.3.4,0,.8,0,1.2,0,.3,0,.5-.1.5,0,.4-.2.9-.5.4-.4Z"/>
        <path class="cls-1" d="M8.6,52c-.2-.4-.2-.8-.4-1.4,0,.1,0,.3.2,1l-.2-.2c.2.6,0-.2.3.6Z"/>
        <path class="cls-1" d="M15,52.8h-.3c-.7.3-1.6.6-1.9.8.8-.3,1.9-.6,2.3-.8Z"/>
        <path class="cls-1" d="M10.3,53.4s0,0,0-.1c-.6-.1,0,0-.2,0-.2,0-.4-.1-.6-.2.7.2,0,.1.7.2Z"/>
        <path class="cls-1" d="M12.5,52.8l.9-.3h-.7c-1,.5,0,.2-.1.3Z"/>
        <path class="cls-1" d="M13.6,52.5h.1s1.3-.6,1.3-.6c-.8.3-.8.3-1.4.6Z"/>
        <path class="cls-1" d="M30,48c.1,0-.7,0-.3,0-.1,0,.9-.2.3,0Z"/>
        <path class="cls-1" d="M26.6,48.2c.4,0,1.6-.6,2.2-.8-.6.2-2.3.7-2.2.8Z"/>
        <path class="cls-1" d="M28.9,47.3s-.1,0-.2,0c0,0,.2,0,.2,0Z"/>
        <path class="cls-1" d="M51.9,39.7c0,0,.1,0,.2,0,0,0-.1,0-.2,0Z"/>
        <path class="cls-1" d="M51.3,39.9c-.4.1-1.1.4-1.2.5.6-.2,1.1-.4,1.8-.7-.3,0-.6.2-.5.2Z"/>
        <path class="cls-1" d="M56.6,38.3c-.3.1-.6.2-.5.2.2,0,.7-.3.5-.2Z"/>
        <path class="cls-1" d="M92.6,28.2c.5-.1.8-.3.6-.3-.6.2-.2.1-.6.3Z"/>
        <polygon class="cls-1" points="93.9 27.7 94 27.8 94.3 27.7 93.9 27.7"/>
        <path class="cls-1" d="M97.6,26.6s-.1.1-.2.2c.2-.1.4-.3.2-.2Z"/>
        <path class="cls-1" d="M97.2,26.8s0,0,.1,0c0,0,0,0-.1,0Z"/>
        <path class="cls-1" d="M96.9,26.9h0c0,0,.2,0,.3-.1-.1,0-.2.1-.3.1Z"/>
        <path class="cls-1" d="M98.6,25.6c-.2.2-.4.4-.7.6-.3.3-.1.2,0,0,.2-.2.4-.4.1,0,.2-.2.3-.4.4-.6Z"/>
        <path class="cls-1" d="M98.8,22.6c-.2-.6-.6-1.5-.6-1.9-.6-1.8,0,.5-.8-1.6.6,2,.5.9,1,2.7-.2-.9.2.5.4.8Z"/>
        <path class="cls-1" d="M98.7,23c0,0-.2-.7-.3-1,0,.2.1.6.3,1Z"/>
        <polygon class="cls-1" points="97.6 19.1 97.5 18.5 97.4 18.4 97.6 19.1"/>
        <path class="cls-1" d="M97,17l.2.5c0-.2-.3-1-.2-.5Z"/>
        <path class="cls-1" d="M96.2,14c-.1-.5-.4-.9,0,.1v-.2c0,0-.2-.5,0,.1Z"/>
        <path class="cls-1" d="M93.7,7.4c.1.3.3.8.3.7l-.3-.9v.3Z"/>
        <path class="cls-1" d="M93.4,7.6c0,.4.3.9.5,1.5-.2-.7-.2-.6-.5-1.5Z"/>
        <path class="cls-1" d="M93.5,6.2c.1.2.2.7.3.9,0-.1-.2-.8-.3-.9Z"/>
        <path class="cls-1" d="M93,4.7c0-.3,0,0,0-.2,0-.3-.2-.7-.3-1-.1-.3-.2-.6-.3-.8,0,.2,0,.5-.1.2.4,1.1.7,1.6.8,2.1l.5.8c-.2-.9-.3-.6-.5-1.2Z"/>
        <path class="cls-1" d="M93.4,7v-.6c-.1.1-.3-.3-.4-.6,0,.2.3.9.4,1.2Z"/>
        <polygon class="cls-1" points="88.1 1.2 86.9 1.6 87.3 1.5 88.1 1.2"/>
        <polygon class="cls-1" points="87.3 1.4 87.3 1.4 86.4 1.7 87.3 1.4"/>
        <polygon class="cls-1" points="86 1.8 86.2 1.7 86.9 1.5 86 1.8"/>
        <path class="cls-1" d="M83.5,2.5h.2c.3-.1.9-.3.9-.3-.3.1-.9.3-1.1.3Z"/>
        <path class="cls-1" d="M75.5,6.6c.2-.1,0,0,0,0l-.3.2c.1,0,.3-.1.4-.1Z"/>
        <path class="cls-1" d="M74,6.9l-.9.4c1-.3,1.2-.4,2.1-.7-.4,0-.9.3-1.4.5h.2Z"/>
        <path class="cls-1" d="M56,12.6c0,0-.1,0,.5-.3-.9.3-1.7.6-2.7.9.2,0-.6.3-.2.2l1.2-.4h-.2c.8-.1.5-.1,1.4-.4Z"/>
        <path class="cls-1" d="M8.6,26.9c0,0,0,0-.2,0-.7.3.3,0,.2,0Z"/>
      </g>
    </g>
  </g>
</svg>