<?xml version="1.0" encoding="UTF-8"?>
<svg id="Layer_1" data-name="Layer 1" xmlns="http://www.w3.org/2000/svg" version="1.1" viewBox="0 0 100 100">
  <defs>
    <style>
      .cls-1 {
        fill: #dd3e3e;
        stroke-width: 0px;
      }
    </style>
  </defs>
  <path class="cls-1" d="M97.5,38.1c0,16.7-12.6,31-29.1,33.2h-.3c-2.8.8-4.2-.4-5.6-2.8-5.3-9.2-10.8-18.3-16.2-27.4-2.9-4.8-7.1-7.3-12.7-7.7h-1.4c-1.3.2-1.4,0-1.2-1.2.7-4.1,2.2-8,4.4-11.5,6-9.4,14.5-14.9,25.5-15.9,18-1.6,32.5,10.7,35.8,26.4.5,2.2.7,4.5.7,6.8h.1ZM60.6,29.6v8.2c0,2.5,1.3,3.9,3.8,3.9h13.2c.5,0,1,0,1.5-.2,1.7-.5,2.6-2,2.3-4-.2-1.6-1.6-2.9-3.4-2.9h-9c-1,0-1.4-.3-1.4-1.4v-12c0-2.3-1.5-3.9-3.6-3.9s-3.4,1.5-3.4,3.8v8.4h0Z"/>
  <path class="cls-1" d="M33.3,95.3H11.1c-1.1,0-2.1,0-3.1-.3-4.7-1.1-6.9-6.5-4.3-10.8,4.3-6.9,8.4-14,12.5-21,3.6-6,7.2-12.1,10.8-18.1,3-5,9.6-5.1,12.6,0,7.8,13,15.6,26.1,23.4,39.1,2.9,4.8,0,10.4-5.5,10.9-.8,0-1.5,0-2.3,0h-21.9ZM36.9,58.7h0v-.4c0-2.7-1.4-4.3-3.9-4.2-2.3,0-3.8,2.1-3.5,4.7.2,2,.4,4,.5,6,.2,2.7.4,5.4.7,8.1.2,1.6,1.1,2.5,2.5,2.5s2.3-.7,2.5-2.4c.5-4.7.9-9.4,1.3-14.1v-.2ZM33.2,86.8c2.2,0,4.1-1.7,4.1-3.9s-1.9-4.2-4-4.2-4,1.8-4.1,4c0,2.3,1.7,4.1,4,4.1Z"/>
</svg>