<?xml version="1.0" encoding="UTF-8"?>
<svg id="Layer_1" data-name="Layer 1" xmlns="http://www.w3.org/2000/svg" version="1.1" viewBox="0 0 100 100">
  <defs>
    <style>
      .cls-1 {
        fill: #bdc6c3;
        stroke-width: 0px;
      }
    </style>
  </defs>
  <g id="Layer_3" data-name="Layer 3">
    <path class="cls-1" d="M15.6,73.7v-18c0-2-.6-2.7-2.6-2.6h-4.2c-1.2,0-2.3-.3-2.9-1.5s0-2.1.9-3c3.8-3.9,7.6-8,11.4-12,9.8-10.2,19.5-20.5,29.4-30.6,1.7-1.8,2.9-1.8,4.7,0,13.2,13.6,26.2,27.3,39.4,41.1.6.6,1.2,1.2,1.7,2,1.5,1.8.8,3.6-1.5,3.9-1.7.2-3.2.2-4.8,0-2.1,0-2.7.6-2.7,2.7v35.5c0,3.8-.6,4.4-4.4,4.4h-13.8c-3.5,0-3.9-.6-3.9-3.9v-24.5c0-2.9-.5-3.3-3.3-3.3h-17.9c-2.7,0-3.2.5-3.2,3.3v25c0,2.9-.6,3.5-3.5,3.5h-15c-2.9,0-3.6-.8-3.6-3.6,0-6.1,0-12.1,0-18.2Z"/>
  </g>
</svg>