<?xml version="1.0" encoding="UTF-8"?>
<svg id="Layer_1" data-name="Layer 1" xmlns="http://www.w3.org/2000/svg" version="1.1" viewBox="0 0 100 100">
  <defs>
    <style>
      .cls-1 {
        fill: #b3b3b3;
        stroke-width: 0px;
      }
    </style>
  </defs>
  <path class="cls-1" d="M68.1,91.1c-3.6-.8-6.5.6-9.3,2.7-1,.8-2.2,1.5-3.3,2.2-3.7,2.3-7.4,2.3-11.1,0-2-1.3-4-2.5-5.9-3.9-1.1-.8-2.2-1-3.5-1-2.8,0-5.6.2-8.4-.1-4.2-.5-7-2.7-8.4-6.6-.9-2.5-1.7-5-2.5-7.5-.3-1.1-.9-1.9-1.8-2.6-1.9-1.4-3.7-2.9-5.5-4.4-3.5-2.8-4.8-6.4-3.7-10.8.6-2.5,1.3-5,2-7.4.2-.9.2-1.7,0-2.6-.8-2.5-1.6-4.9-2.4-7.4-1.3-4.2,0-8.4,3.5-11.1,2.1-1.6,4.2-3.1,6.3-4.6.9-.6,1.5-1.4,1.9-2.5.8-2.3,1.7-4.5,2.6-6.8,1.7-4.2,4.8-6.5,9.3-6.6,2.6-.1,5.2-.3,7.8-.4.8,0,1.5-.4,2.2-.9,2.1-1.5,4.1-3,6.2-4.5,3.7-2.6,8.1-2.6,11.8,0,2,1.5,4.1,2.9,6,4.4,1,.7,2,1.1,3.3,1.1,2.7,0,5.4.1,8,.5,3.8.5,6.6,2.6,8,6.2,1,2.3,1.9,4.7,2.7,7.1.4,1.1,1.1,2,2,2.7,2,1.4,4.1,2.9,6.1,4.4,3.6,2.7,5,6.9,3.6,11.2-.8,2.5-1.6,5-2.4,7.4-.3.9-.3,1.8,0,2.7.7,2.5,1.4,4.9,2,7.4,1.1,4.3-.2,7.8-3.5,10.6-1.9,1.6-3.8,3.1-5.7,4.5-.9.7-1.5,1.5-1.8,2.6-.7,2.2-1.4,4.4-2.1,6.6-1.7,5.1-5.1,7.6-10.4,7.6-1.2,0-2.4,0-3.6,0ZM50.3,69.8c3,.1,6.1-.4,9.2-1.2,5.6-1.5,10.5-4,13.9-8.8,4-5.6,5.3-11.9,5.5-18.6,0-2.2-1.5-3.4-3.9-3.3-3.3.2-6.5.6-9.6,1.6-6.3,1.9-11.5,5.3-14.6,11.4-.2.3-.2.9-.7.9-.4,0-.5-.6-.7-.9-2.2-4.1-5.3-7.2-9.4-9.3-4.7-2.4-9.8-3.4-15.1-3.6-2.5-.1-3.8,1.4-3.7,4.2.2,3.2.6,6.3,1.6,9.4,2.2,7.6,6.8,13.1,14.3,15.9,4.2,1.5,8.5,2.4,13.2,2.3Z"/>
  <path class="cls-1" d="M54.5,63.3c-.8.3-1,0-.9-1,.8-5.5,2.6-10.4,7.2-13.9,3.2-2.4,6.8-3.4,10.7-4,.9-.1,1.1.3,1,1.1-1.2,10.2-7.7,16.6-17.9,17.8Z"/>
  <path class="cls-1" d="M28.4,44.4c9.9,1.4,15.9,6,17.9,16.1.1.6.2,1.3.3,2,.1.7-.1.9-.8.8-9.7-1.3-15.8-6.2-17.7-15.9-.1-.7-.3-1.4-.4-2.1-.1-.7.2-1.1.6-1Z"/>
</svg>